<svg xmlns="http://www.w3.org/2000/svg" width="16" height="16" viewBox="0 0 16 16"><defs><style>.a{opacity:0.798;}.b{fill:none;}.c{fill:#fff;}</style></defs><g class="a"><path class="b" d="M0,0H16V16H0Z"/><path class="c" d="M10.105,1H3.158A1.223,1.223,0,0,0,2,2.273v8.909H3.158V2.273h6.947Zm1.737,2.545H5.474A1.223,1.223,0,0,0,4.316,4.818v8.909A1.223,1.223,0,0,0,5.474,15h6.368A1.223,1.223,0,0,0,13,13.727V4.818A1.223,1.223,0,0,0,11.842,3.545Zm0,10.182H5.474V4.818h6.368Z" transform="translate(0 0)"/></g></svg>